P1
# CREATOR: GIMP PNM Filter Version 1.1
103 103
0000000000000000000000000000000000000000000000000000000000000000000000
0000000000000000000000000000000000111111111111111111111111111111111111
1111111111111111111111111111111111111111111111111111111111111111100100
0000000000000000000000000000000101000000000000000001000000000100000000
0000000000010001000001000001001011111111111111111111111110111110101011
1111101111111010111111101010111111111111111010101011101011101001010001
0000010001000000000100010101010101000001000001010000000101010101000000
0000010101010001010101010010101010111010101011101110111010101010101011
1110111110111111111010101010101111111110101011101010101010010101010100
0101010001010000010101010101010100000000000000000000010101010100000000
0001010101010101010100101010101011101011111011111110101010101010111111
1111111111111111101010101111111111111010101010101010100101010101010001
0000000100000001010101000100000000000000000000000001010100010001000100
0100010101010101001010101010101011111111101111111010101110111111111111
1111111111111110101110101010101011111110101010101001010100010101000000
0001010001000101010001000000000000000100010000010100010101010101000000
0001010101010010101111101111111111101010101010101010111111111111101110
1010101110101010101010101010111111111010101010010100000100000000000001
0101010101010101000000000000010101010101010101010101010001010001000100
0101010100101111101111111111111010101010101010101011111111111110101011
1010101010101010111110111010101010101010100100000001000000000001010101
0101010101010000010000000000010000000101010101010100000001010101010101
0101001111111111111111101010101010101010101010111010111111111111111111
1010101010101111111010101010111010101001000000000000000001010101010101
0101010100010101000000000000000000010101000100000001010001010000010101
0010111111111111111111101010101010101010101110101011101111111111111110
1011111011111010111111111110101010010000000000000000000101010100010101
0101010001010101010000000000000001010001010001010100000000010101010010
1111111111111111101010101111111010101010111010101010111111111111111010
1010101010101011111110101010100101000000000000000001010100000000000101
0101010101000101000000000000010101010101010101010000010101010100101011
1111111111111110101111111111111010101010101011101011111011111110101010
1010101010101110101010101001010000000000000000000100000000000000010101
0101010101010100010100000001010101010101010100010101010101001011111111
1111111111111111111111111111111010101010101010111010101111111110101011
1010101010111010101010010000000001000000010000000000000000000000010101
0100010100000101010001000001010001010101010000010101010011111111101011
1010101110111111111111111111101010111110111111101010101011111011101010
1010111111101010100100010001010001010101010100000000000000000001010000
0101000000010101010000000000010101010100000000010100101010101011111010
1010101010111111111111111010101110101011111010101011111111111110101010
1111111111101001010101010000000101010101010100000000000000010101010101
0100000101010000000000000001000100000000000001001010101011111111101010
1010101011111111111111101010101010111111101011101111111111111111111111
1111111110010101010100000001010101010101010000000101000001010101010000
0001010100010000000000000000000000000000010010101010101110111010101010
1010101111101010111110101010101111101010111110111111111111111111111111
1110100101010101010100000100010101010001000000010100000101010101000101
0101000101000000000000000001000001000100101010101010111111111110101011
1111111111101011111010101011101010101010101111101111111110101010101010
1001010101010100000000000001010000000000000101010000010101000001000001
0101010001010000000101010101010101001010101110101111111111111011111111
1111101010111010101011111111111110101010101010111110101010101010101001
0101000101010000000001010101000001000001010100010101000000000000000101
0101010100000101010101010101010010101110101010111011101010101011101011
1010101011101011111111111111111010101010111110101010101010101110010100
0001010100010101010101000100010101010101010101000100000001000100010101
0100000001010101010101000100101111111010111110101010101011101110101010
1010101010101011111010101011101010111111111110101010101110100100000000
0100000101000001010101000101010101010101010101010001010101000101010000
0000000001010101010101001011111111111110101111111010101110101010101010
1010101010101010101111101010111111111111111011101010101001010000000000
0001000000010100000101010101010101010101010101010100000101010100000000
0000010001010101010010101111101111111111111010111111101010101010101010
1010101011101111101010101011111111111011101010101010010101000101000000
0000000100000000010101010100010001010001000000000001010001010000010000
0001010101010000101010101010111111111110111111111010101010111111111011
1110111111111110111110101110101111101010101011100101010101010100000000
0000000000010101010101000000000100000100000000000000010100010101000101
0101010001001010101010101111111111111111111110101010101011111011111111
1011111111111110101011101010111010101011101001010101010100000000000000
0000000001010101010100000100000000010001000000010101010001010000010101
0000010010101110101011111111111111111111111010101010111111101111111110
1010101111101010101010111111101011111110010101000101000100000000000000
0000010101010100000001010000000001000101000001010101010000000001000000
0100101010101011111011111111111111111010101010101111101010111110111111
1010111110101010111111111111111110100101010101000000000000010000000000
0101010101010001010101000101000000010100010101010101000000000000000100
1010101011111111111111101111111111101010101010111010101010101111111110
1110101110101010111111101111101001010101000100000000000001000001000001
0101010101000101010101000000000000000100000101010100000101000001001010
1011111011111111111110111011101110101010101010101010111111111111111111
1111111010101011101010111110010100010000010000000000000100000001000001
0101010101010101000000000000000000000000010101010101010100010010111110
1111101110111111111111111111111110101010101010101011111111111111111111
1111101010101010101010100100000001000101010100000000000000000000000100
0101010100010100000001000000000100000000010001010101010100111111111010
1010101011111111111111111111111111101010111110101111111011101110111111
1110111110101010101001000000010101010101010000000100000000000000000001
0101000001000000000001010100000000010000000101010101001011111010101010
1010101111101011101111111111111110101011111111111111111010111111111011
1111111010101110010100010101010101010100000101010101000001000000010101
0100000000000000000100000000010100000000010100010010101010101010101010
1111111010101010111110101111101010101111111111111111111111111010101111
1111101010100101010101010101010101000000010001010100000100000001010101
0000000000010000000000000101000100000101010100101010101010101010101011
1110111010101011111111111110101010111111111010111111111110101010101110
1010101001010101010101000101010100010100010101000001000000000101010100
0000010101000000000101010101010101010101001010101010101011101010101010
1011101011111010111111101010101110111010101111111010101010101010101011
1010010001010101010100010101010101010101000001010100000101010101000100
0101000000010101010101010100010100010011111110101010101110101011101010
1010111010101011101010101010111011101011111010101010101010111110101110
0100000001010101000101010000010101010101010101010101010101010100010001
0100010101010101010100000101000100101111111010101110101011111110101010
1010101010101010101010101111101110111010101010101010111110101010100100
0000000100000101010000000101010101000101010101010101010101000001000000
0101010101010101000001010101001011111111111111101010111110101010101111
1010101010101010101010111111111111101011101011101011101010101001010000
0000010001010101000101010101000000010101010101010101010000000000000001
0000010001010100010101010010111111111010101010101110101010101011111110
1010101010101010101111111111111111111111101010111110101010010000000000
0101000101000001010101010100000101010101010101010101000000000000000000
0001010100000001010100111111111110101111101111111010101010101110101010
1010101010101010111111111111111111101010101111111110100100000000000100
0000010000000101010101010001010100010101010100010100000000010000000001
0101000000000001001011111111111111111110111110101010101011111010111110
1010101011101011111111101111111010101011111111111001010100000000000100
0001000001000101010100000100000001010101000101010000000001000001010101
0100000000010010101010111111101011101111111110101010101111101111111010
1011111010101111111111101010101011101111111010010101010100010101010100
0000000101010101010001010000010001000000000101000000000101010101000000
0000010100101010101010101010101111111110101010101010111010111111111111
1111111010111111101010101011111111111110100101010101010101010100000000
0101010101010100000001000000000000000001010100010101010101010000000000
0001001010101010101010101011111111101010101010111111111011111011111111
1010101010101010101010101111111111101001010101010101010101000000000101
0101000100000000010100010100000001010101010101010101010100000001000101
0010101010101010101010111111101010101111111111111010101010101111111010
1010101010101010101111111010111010010101010101010101010000000101010100
0000000000010101010101000000000001010100010101010101000000010000010010
1010101010101010111111111010101111111111111010101010101111111111111010
1111101010101010111111101111100101010101010101010100000000010001000000
0000010101010101000000000000010101000001010101010100000000000100101010
1010101010101011111110111110111111111110101010101111111111111010101011
1110101010101111111111111001010101010100010100010000000000000100000000
0001010101000000000000010101010100010100010101000000000001001010101010
1111101111111111111111111011101111111010101111111111111010101010111010
1111101010111111111010010101010100000100000000000000000000010001000000
0101010000000000010100000101000101000101010100000001010010101010101110
1111111111111111111111101110111110101010111111111011111111101010101011
1010101011111010100101010101010100000000000000000100000101010100010101
0001000000010100000000010101010001010101000001010100101010101010111111
1110111111101110101010101011101010111011111010101111111110111011101010
1011111110101001010001010100000000010100000000000101010101000001010000
0100000101010000000000000000010100000000000101001011111010111111111010
1111111111111110101011111110111111111111101011111111111111111110111111
1111111010010000000100000000000100000000000000000001000000000000000000
0000010000000000000000000000000000000000010011111111111111111110111111
1111111111111111111111111111111111111111111111111111111111111111111111
1111100000000000000000000000000000000000000000000000000000000000000000
000000000000000000000000000000000000000