P1
43 43
0000000000000000000000000000000000000000000011111111111110111111111111
1111111111111110010001000000010000000100000001000000000001001010101111
1010111010101110111010101111111001010001000101010101010001000001010100
0001001011111011101010101110111111111011101110100101000000010100010000
0100000001000001000100101011111010111111111110111110111111101010010100
0101010000000000000100000000000001010010111010101111111111101111111111
1111111110010100000100000000000001000000000000000001001011111011111111
1111111011111111111111101001000001010000010100000001000000000000010100
1011101011101010101111111011111111111110100101010100000100010100000000
0000000000010100101010111111111110101111111111111111101010010101000000
0100010101000000000001000001010010101111111010101010111110111111101111
1010010100010001000101010000000100000001000001001010101010111110101111
1110101110111011101001010100010001000100000001010100010001010100101011
1111111011111111101010101110111010100101000000000100000100010101010101
0101000100101011111110111010101010111010101010101110010100000001000101
0101010100010101010101010010111110111010101010101010111010101010101001
0000010100010101000101000100010101000101001111101010111010111111101111
1010101011101001000101010101010000000101000100010101000100111010101010
1011111110101010101110101011100100010101010101000100010101010100010100
0100101110101010101110101110101010101110101010010001010101010000010001
0101010101000101010010101010101011111011101010101110101111101001010001
0101000000000101010100000100000001001111101110101111111110101011111111
1111111001000100000101000000000101000000000000000100101011111111101111
1111101111111111111110100101000000000001000000000100000001000000010010
1111111111111011111111111110111011111010010000000000000000000000000000
0100010000010011111111111111111111111111111110111111111000000000000000
00000000000000000000000000000
